<?xml version="1.0" encoding="iso-8859-1"?>
<!-- Generator: Adobe Illustrator 19.0.0, SVG Export Plug-In . SVG Version: 6.00 Build 0)  -->
<svg version="1.1" id="Layer_1" xmlns="http://www.w3.org/2000/svg" xmlns:xlink="http://www.w3.org/1999/xlink" x="0px" y="0px"
	 viewBox="0 0 512 512" style="enable-background:new 0 0 512 512;" xml:space="preserve">
<g>
	<g>
		<path d="M136,301c-8.284,0-15,6.716-15,15v90c0,8.284,6.716,15,15,15s15-6.716,15-15v-90C151,307.716,144.284,301,136,301z"/>
	</g>
</g>
<g>
	<g>
		<path d="M196,301c-8.284,0-15,6.716-15,15v90c0,8.284,6.716,15,15,15s15-6.716,15-15v-90C211,307.716,204.284,301,196,301z"/>
	</g>
</g>
<g>
	<g>
		<path d="M256,301c-8.284,0-15,6.716-15,15v90c0,8.284,6.716,15,15,15s15-6.716,15-15v-90C271,307.716,264.284,301,256,301z"/>
	</g>
</g>
<g>
	<g>
		<path d="M316,301c-8.284,0-15,6.716-15,15v90c0,8.284,6.716,15,15,15s15-6.716,15-15v-90C331,307.716,324.284,301,316,301z"/>
	</g>
</g>
<g>
	<g>
		<path d="M376,301c-8.284,0-15,6.716-15,15v90c0,8.284,6.716,15,15,15s15-6.716,15-15v-90C391,307.716,384.284,301,376,301z"/>
	</g>
</g>
<g>
	<g>
		<path d="M467,181h-15v-45c0-37.631-28.224-67.985-63.21-73.907C382.917,44.067,365.96,31,346,31H166
			c-19.96,0-36.917,13.067-42.79,31.093C88.228,68.014,60,98.37,60,136v45H45c-24.813,0-45,20.187-45,45
			c0,20.197,13.375,37.327,31.733,43.002l25.119,172.745C59.734,464.137,78.892,481,101.483,481h309.033
			c22.592,0,41.75-16.863,44.631-39.253l25.119-172.745C498.625,263.327,512,246.197,512,226C512,201.187,491.813,181,467,181z
			 M166,61h180c8.271,0,15,6.729,15,15s-6.729,15-15,15H166c-8.271,0-15-6.729-15-15S157.729,61,166,61z M90,136
			c0-20.412,14.754-38.164,34.18-43.417C130.797,109.21,147.042,121,166,121h180c18.958,0,35.203-11.79,41.82-28.417
			C407.246,97.836,422,115.588,422,136v45H90V136z M425.441,437.563c-0.015,0.1-0.028,0.199-0.041,0.298
			c-0.936,7.491-7.335,13.139-14.884,13.139H101.483c-7.549,0-13.948-5.648-14.884-13.139c-0.013-0.1-0.026-0.199-0.041-0.298
			L62.339,271h387.322L425.441,437.563z M467,241H45c-8.271,0-15-6.729-15-15s6.729-15,15-15c5.756,0,416.277,0,422,0
			c8.271,0,15,6.729,15,15S475.271,241,467,241z"/>
	</g>
</g>
<g>
</g>
<g>
</g>
<g>
</g>
<g>
</g>
<g>
</g>
<g>
</g>
<g>
</g>
<g>
</g>
<g>
</g>
<g>
</g>
<g>
</g>
<g>
</g>
<g>
</g>
<g>
</g>
<g>
</g>
</svg>
