<?xml version="1.0" encoding="iso-8859-1"?>
<!-- Generator: Adobe Illustrator 19.0.0, SVG Export Plug-In . SVG Version: 6.00 Build 0)  -->
<svg version="1.1" id="Layer_1" xmlns="http://www.w3.org/2000/svg" xmlns:xlink="http://www.w3.org/1999/xlink" x="0px" y="0px"
	 viewBox="0 0 512 512" style="enable-background:new 0 0 512 512;" xml:space="preserve">
<path style="fill:#50B9FF;" d="M409.516,481H102.484c-22.646,0-41.836-16.934-44.648-39.404L30.161,228.168
	c-0.63-4.307,0.645-8.701,3.501-11.982C36.504,212.904,40.649,211,45,211h421c4.351,0,8.496,1.904,11.338,5.186
	c2.856,3.281,5.131,7.676,4.501,11.982L454.12,441.889C451.352,464.066,432.162,481,409.516,481z"/>
<path style="fill:#48A7E6;" d="M466,211H256v270h153.516c22.646,0,41.836-16.934,44.604-39.111l27.719-213.721
	c0.63-4.307-1.645-8.701-4.501-11.982C474.496,212.904,470.351,211,466,211z"/>
<path style="fill:#A1A7B3;" d="M436,211H76c-8.291,0-15-6.709-15-15v-60c0-41.353,33.647-75,75-75c8.291,0,15,6.709,15,15
	s-6.709,15-15,15c-24.814,0-45,20.186-45,45v45h330v-45c0-24.814-20.186-45-45-45c-8.291,0-15-6.709-15-15s6.709-15,15-15
	c41.353,0,75,33.647,75,75v60C451,204.291,444.291,211,436,211z"/>
<path style="fill:#979CA7;" d="M376,61c-8.291,0-15,6.709-15,15s6.709,15,15,15c24.814,0,45,20.186,45,45v45H256v30h180
	c8.291,0,15-6.709,15-15v-60C451,94.647,417.353,61,376,61z"/>
<g>
	<path style="fill:#5C5F66;" d="M136,421c-8.291,0-15-6.709-15-15v-90c0-8.291,6.709-15,15-15s15,6.709,15,15v90
		C151,414.291,144.291,421,136,421z"/>
	<path style="fill:#5C5F66;" d="M196,421c-8.291,0-15-6.709-15-15v-90c0-8.291,6.709-15,15-15s15,6.709,15,15v90
		C211,414.291,204.291,421,196,421z"/>
	<path style="fill:#5C5F66;" d="M256,421c-8.291,0-15-6.709-15-15v-90c0-8.291,6.709-15,15-15c8.291,0,15,6.709,15,15v90
		C271,414.291,264.291,421,256,421z"/>
</g>
<g>
	<path style="fill:#53565C;" d="M316,421c-8.291,0-15-6.709-15-15v-90c0-8.291,6.709-15,15-15s15,6.709,15,15v90
		C331,414.291,324.291,421,316,421z"/>
	<path style="fill:#53565C;" d="M376,421c-8.291,0-15-6.709-15-15v-90c0-8.291,6.709-15,15-15s15,6.709,15,15v90
		C391,414.291,384.291,421,376,421z"/>
</g>
<path style="fill:#4DA6FF;" d="M346,121H166c-24.814,0-45-20.186-45-45s20.186-45,45-45h180c24.814,0,45,20.186,45,45
	S370.814,121,346,121z"/>
<path style="fill:#E6EEFF;" d="M482,241H30c-16.569,0-30-13.431-30-30l0,0c0-16.569,13.431-30,30-30h452c16.569,0,30,13.431,30,30
	l0,0C512,227.569,498.569,241,482,241z"/>
<path style="fill:#53565C;" d="M271,406v-90c0-8.291-6.709-15-15-15v120C264.291,421,271,414.291,271,406z"/>
<path style="fill:#DAE2F2;" d="M482,181H256v60h226c16.569,0,30-13.433,30-30C512,194.431,498.569,181,482,181z"/>
<path style="fill:#4596E6;" d="M346,31h-90v90h90c24.814,0,45-20.186,45-45S370.814,31,346,31z"/>
<g>
</g>
<g>
</g>
<g>
</g>
<g>
</g>
<g>
</g>
<g>
</g>
<g>
</g>
<g>
</g>
<g>
</g>
<g>
</g>
<g>
</g>
<g>
</g>
<g>
</g>
<g>
</g>
<g>
</g>
</svg>
