<svg height="512pt" viewBox="0 0 512 512" width="512pt" xmlns="http://www.w3.org/2000/svg"><path d="m394.667969 234.667969h-277.335938c-64.703125 0-117.332031-52.652344-117.332031-117.335938 0-64.679687 52.628906-117.332031 117.332031-117.332031h277.335938c64.703125 0 117.332031 52.652344 117.332031 117.332031 0 64.683594-52.628906 117.335938-117.332031 117.335938zm-277.335938-202.667969c-47.058593 0-85.332031 38.273438-85.332031 85.332031 0 47.0625 38.273438 85.335938 85.332031 85.335938h277.335938c47.058593 0 85.332031-38.273438 85.332031-85.335938 0-47.058593-38.273438-85.332031-85.332031-85.332031zm0 0"/><path d="m117.332031 170.667969c-29.394531 0-53.332031-23.914063-53.332031-53.335938 0-29.417969 23.9375-53.332031 53.332031-53.332031 29.398438 0 53.335938 23.914062 53.335938 53.332031 0 29.421875-23.9375 53.335938-53.335938 53.335938zm0-74.667969c-11.753906 0-21.332031 9.558594-21.332031 21.332031 0 11.777344 9.578125 21.335938 21.332031 21.335938 11.757813 0 21.335938-9.558594 21.335938-21.335938 0-11.773437-9.578125-21.332031-21.335938-21.332031zm0 0"/><path d="m394.667969 512h-277.335938c-64.703125 0-117.332031-52.652344-117.332031-117.332031 0-64.683594 52.628906-117.335938 117.332031-117.335938h277.335938c64.703125 0 117.332031 52.652344 117.332031 117.335938 0 64.679687-52.628906 117.332031-117.332031 117.332031zm-277.335938-202.667969c-47.058593 0-85.332031 38.273438-85.332031 85.335938 0 47.058593 38.273438 85.332031 85.332031 85.332031h277.335938c47.058593 0 85.332031-38.273438 85.332031-85.332031 0-47.0625-38.273438-85.335938-85.332031-85.335938zm0 0"/><path d="m394.667969 448c-29.398438 0-53.335938-23.914062-53.335938-53.332031 0-29.421875 23.9375-53.335938 53.335938-53.335938 29.394531 0 53.332031 23.914063 53.332031 53.335938 0 29.417969-23.9375 53.332031-53.332031 53.332031zm0-74.667969c-11.757813 0-21.335938 9.558594-21.335938 21.335938 0 11.773437 9.578125 21.332031 21.335938 21.332031 11.753906 0 21.332031-9.558594 21.332031-21.332031 0-11.777344-9.578125-21.335938-21.332031-21.335938zm0 0"/></svg>